<svg version="1.1" width="423.33333mm" height="211.66667mm" viewBox="0 0 423.33333 211.66667" xmlns="http://www.w3.org/2000/svg" xmlns:xlink="http://www.w3.org/1999/xlink"><path d="M21.166667 124.34009Q21.166667 139.50685 31.009144 150.06759L79.393321 183.07656L79.783667 183.26365L387.6499 148.97821L387.75835 148.92692L388.20147 148.69211L389.74478 147.78275L390.20545 147.48014L391.58111 146.47808L392.03755 146.10879L393.26795 145.0064L393.69701 144.5804L394.79693 143.371L395.17859 142.90639L396.15921 141.58238L396.4803 141.10213L397.35188 139.65201L397.60775 139.17944L398.38074 137.58431L398.57437 137.13922L399.25936 135.36923L399.39883 134.96573L400.00597 132.97621L400.10173 132.62259L400.64041 130.34842L400.70303 130.0482L401.18206 127.39377L401.22091 127.14731L401.64978 123.9656L401.66928 123.80277L401.88447 121.74867Q402.51274 106.6039 401.74227 91.464193L401.3595 88.61887L401.3167 88.354015L400.79583 85.599371L400.72987 85.301119L400.12352 82.912695L400.0275 82.583606L399.33654 80.494835L399.20327 80.140119L398.4266 78.301579L398.24953 77.929568L397.38456 76.304662L397.1591 75.926794L396.20228 74.488819L395.92718 74.118886L394.87444 72.848714L394.55288 72.501303L393.39976 71.385313L393.03964 71.07371L391.78088 70.101975L391.3941 69.836112L336.27498 32.232397L334.90357 31.397291L334.50431 31.182406L333.01009 30.477814L332.61276 30.314197L330.98078 29.735375L330.5982 29.61914L328.80703 29.163065L328.44926 29.087525L326.46904 28.753522L326.14302 28.710667L323.93305 28.501147L323.64284 28.48286L321.14769 28.404173L320.8951 28.403021L318.03782 28.466635L317.82314 28.476268L314.49242 28.700813L314.33835 28.713684L311.55904 28.990651L311.41439 29.007253L307.08816 29.569173L306.87285 29.601992L303.46428 30.198492L303.20505 30.250946L300.38409 30.899263L300.0808 30.978844L297.67596 31.688908L297.33051 31.804154L295.23766 32.583836L294.85497 32.74356L293.00581 33.600246L292.5947 33.812192L290.94294 34.753112L290.51632 35.022144L289.03051 36.054184L288.60461 36.380427L287.26346 37.509909L286.85589 37.887516L285.64487 39.120373L285.2719 39.537607L284.18045 40.880256L283.8544 41.321086L282.87389 42.781966L282.60153 43.228702L281.92339 44.458802L272.6319 38.119902L272.19285 37.849477L270.86599 37.139283L270.41872 36.932086L268.96743 36.358472L268.53105 36.212247L266.93719 35.770183L266.52744 35.677268L264.76315 35.36395L264.39118 35.313748L262.4157 35.129814L262.08811 35.111045L259.84284 35.061939L259.56263 35.064165L256.96204 35.161919L256.72986 35.176306L253.64256 35.44271L253.53396 35.453314L253.09983 35.500631L252.97295 35.516142L249.26963 36.017993L248.93403 36.075284L246.59957 36.556267L246.15294 36.669618L244.38062 37.205096L243.82598 37.407308L242.36881 38.032151L241.73416 38.354764L241.67251 38.39127L241.54718 38.352454L240.733 38.285893L240.03055 38.277709L239.44602 38.306977L219.97451 40.475417L219.38997 40.576341L218.68753 40.740981L217.87335 40.988883L217.10604 41.39742L216.35992 41.855927L215.64071 42.360828L215.01807 42.995634L214.43163 43.668929L214.16077 44.019676L212.27814 42.735299L211.55892 42.390588L210.81281 42.098263L210.0455 41.86063L209.23132 41.794069L208.52888 41.785884L207.94434 41.815153L188.34881 43.997404L187.76427 44.098329L187.06182 44.262969L186.24765 44.510871L185.48033 44.919407L184.73422 45.377914L184.01501 45.882815L183.39237 46.517622L182.80593 47.190916L182.26051 47.89718L181.9033 48.587005L178.7921 46.464462L178.07289 46.119752L177.32677 45.827426L176.55946 45.589793L175.74528 45.523232L175.04284 45.515047L174.4583 45.544316L154.86277 47.726567L154.27823 47.827492L153.57579 47.992132L152.76161 48.240034L151.9943 48.64857L151.24818 49.107077L150.52897 49.611978L149.90633 50.246785L149.3199 50.920079L148.77448 51.626344L148.36473 52.417624L148.00262 53.231487L147.69099 54.061707L147.53933 54.922698L147.45599 55.660242L147.42143 56.270112V56.846793L143.20678 53.971447L142.81167 53.714905L141.41908 52.916687L141.01721 52.713714L139.49249 52.041789L139.09843 51.890701L137.42359 51.340527L137.04947 51.23578L135.19901 50.804778L134.8537 50.7386L132.79252 50.426853L132.48161 50.39075L130.16221 50.201757L129.88851 50.187614L127.24641 50.129161L127.01067 50.129864L123.95621 50.215291L123.75792 50.224973L120.16053 50.475503L120.01531 50.487822L116.71815 50.817613L116.58227 50.833133L111.91871 51.432037L111.72125 51.461476L108.03005 52.088168L107.79267 52.134405L104.73499 52.806745L104.45707 52.876113L101.85275 53.60414L101.53513 53.704018L99.273044 54.495343L98.91887 54.633665L96.924878 55.495263L96.54042 55.679591L94.763148 56.618356L94.358276 56.854498L92.761729 57.877228L92.349697 58.167613L90.908785 59.280802L90.505082 59.623076L89.202364 60.832857L88.822702 61.219273L87.645754 62.531831L87.303684 62.949869L86.24299 64.37246L85.947921 64.806607L85.837868 64.984828L52.537342 42.26633L51.818126 41.921619L51.072013 41.629294L50.304699 41.391661L49.490522 41.3251L48.788078 41.316915L48.203541 41.346184L28.608008 43.528435L28.023471 43.62936L27.321027 43.794L26.50685 44.041902L25.739536 44.450438L24.993423 44.908945L24.274207 45.413846L23.651568 46.048652L23.065135 46.721947L22.519715 47.428211L22.109969 48.219492L21.747862 49.033354L21.436231 49.863575L21.284574 50.724565L21.201225 51.46211L21.166667 52.071979z" fill="url(#d0)"/><path d="M26.127561 138.95438L26.21091 139.67336L26.573017 140.40657L27.15945 140.94925L27.905564 141.24158L28.608008 141.24976L78.340974 135.71126L79.043418 135.54662L79.789532 135.08812L80.375965 134.41482L80.738072 133.60096L80.821421 132.86342V114.21922L80.738072 113.50023L80.375965 112.76702L79.789532 112.22435L79.043418 111.93202L78.340974 111.92384L50.683988 115.00385V48.784791L50.600639 48.065811L50.238532 47.332601L49.652099 46.789922L48.905985 46.497596L48.203541 46.489412L28.608008 48.671663L27.905564 48.836302L27.15945 49.294809L26.573017 49.968104L26.21091 50.781966L26.127561 51.519511zM84.542092 97.860858L84.618542 103.86284L84.823608 108.5044L85.136263 112.27208L85.545331 115.41751L86.044684 118.09408L86.631584 120.40413L87.305871 122.41937L88.069358 124.19118L88.925237 125.75642L89.877479 127.14117L90.930431 128.36365L92.088845 129.43666L93.358532 130.3696L94.747619 131.16987L96.268178 131.84351L97.937996 132.39509L99.782368 132.82725L101.83614 133.14001L104.14655 133.32993L106.77776 133.38933L109.81914 133.30495L113.40093 133.05566L116.66388 132.72925L121.34965 132.12785L125.05551 131.49957L128.12398 130.82616L130.73671 130.09746L133.00558 129.30579L135.00518 128.44412L136.78721 127.50556L138.3879 126.48328L139.83253 125.37078L141.13866 124.1619L142.31881 122.85044L143.38256 121.42917L144.33797 119.88829L145.19233 118.21377L145.95215 116.38561L146.62296 114.37631L147.20877 112.1491L147.71183 109.65564L148.13235 106.83232L148.4683 103.59395L148.71527 99.822549L148.86587 95.345661L148.9097 90.692577L148.83319 84.715255L148.62803 80.094783L148.31523 76.344283L147.90589 73.212732L147.40611 70.547324L146.81856 68.246258L146.14335 66.238254L145.37863 64.4723L144.52119 62.911858L143.56705 61.531096L142.51187 60.311983L141.35086 59.241844L140.07818 58.311343L138.68558 57.513125L137.16086 56.841199L135.48603 56.291025L133.63557 55.860023L131.57439 55.548276L129.25499 55.359283L126.61289 55.30083L123.55844 55.386256L119.96104 55.636786L116.66388 55.966577L112.00032 56.56548L108.30912 57.192172L105.25144 57.864512L102.64712 58.592539L100.38503 59.383864L98.391035 60.245462L96.613762 61.184227L95.017215 62.206958L93.576303 63.320146L92.273584 64.529927L91.096636 65.842485L90.035942 67.265077L89.083461 68.807537L88.23194 70.484008L87.474861 72.314612L86.806758 74.327043L86.223633 76.558298L85.723304 79.057023L85.305635 81.887248L84.972714 85.13475L84.72908 88.918479L84.582238 93.412499zM108.60243 95.181385L108.67913 90.511964L108.86448 87.51091L109.12205 85.400851L109.42658 83.878124L109.75585 82.77678L110.09146 81.985045L110.42431 81.413254L110.76241 80.982687L111.13575 80.62763L111.59345 80.30286L112.19581 79.987016L113.00915 79.678054L114.11033 79.384432L115.60505 79.116892L116.66388 78.982521L118.81072 78.81654L120.2191 78.834449L121.19406 78.960033L121.88173 79.149928L122.38205 79.381546L122.77371 79.656615L123.11507 80.002954L123.44034 80.468848L123.76083 81.113865L124.07186 82.003698L124.36062 83.212791L124.61152 84.834819L124.8085 87.002529L124.93505 89.926675L124.97338 93.358238L124.89629 98.067626L124.71062 101.07692L124.45276 103.19113L124.1477 104.71803L123.81736 105.82453L123.47982 106.62251L123.14388 107.2014L122.80144 107.6394L122.42283 108.00169L121.95952 108.33324L121.35189 108.6556L120.53423 108.97128L119.43051 109.27236L117.93689 109.54859L116.66388 109.71331L114.58518 109.87202L113.22741 109.84998L112.2915 109.72313L111.63343 109.53433L111.1539 109.30467L110.77493 109.02982L110.4399 108.67906L110.11707 108.20188L109.79742 107.53743L109.48715 106.61903L109.1998 105.37067L108.95123 103.69578L108.75762 101.45653L108.63566 98.433192zM152.38232 99.177917L152.4602 104.6523L152.66469 108.67507L152.97342 111.83787L153.37644 114.41738L153.87003 116.57331L154.4547 118.40734L155.13397 119.98663L155.91291 121.35513L156.79666 122.54044L157.78936 123.55917L158.89437 124.42176L160.11631 125.13616L161.46429 125.7097L162.95569 126.14895L164.61967 126.45841L166.50098 126.63868L168.66586 126.68467L171.21321 126.58343L174.29959 126.31024L174.58232 126.27918L178.19761 125.79129L180.72169 125.29007L182.70977 124.73098L184.37304 124.09041L185.81608 123.35013L187.09374 122.49617L188.23526 121.51901L189.21696 120.45678V120.79198L189.30031 121.51096L189.66242 122.24417L190.24885 122.78685L190.99497 123.07917L191.69741 123.08736L207.94434 121.27802L208.64678 121.11338L209.3929 120.65487L209.97933 119.98158L210.34144 119.16772L210.42479 118.43017V49.25376L210.34144 48.53478L209.97933 47.80157L209.3929 47.258891L208.64678 46.966565L207.94434 46.958381L188.34881 49.140632L187.64636 49.305271L186.90025 49.763779L186.31382 50.437073L185.95171 51.250935L185.86836 51.98848V88.119655L185.79159 92.930045L185.609 95.910836L185.35974 97.934334L185.07235 99.333459L184.7738 100.28794L184.48784 100.92L184.22597 101.33178L183.97468 101.61616L183.68933 101.84829L183.30218 102.07213L182.73643 102.29858L181.90944 102.51673L180.71513 102.70803L180.5354 102.72885L179.07483 102.82436L178.32927 102.7745L177.96328 102.68376L177.79953 102.60222L177.70175 102.51723L177.58622 102.35421L177.43167 102.01033L177.25772 101.38128L177.09706 100.35404L176.98122 98.767715L176.93875 96.443198V52.982923L176.8554 52.263943L176.49329 51.530733L175.90686 50.988054L175.16075 50.695729L174.4583 50.687544L154.86277 52.869795L154.16032 53.034435L153.41421 53.492942L152.82778 54.166236L152.46567 54.980099L152.38232 55.717643zM217.49406 145.28775L217.57741 146.00673L217.93952 146.73994L218.52595 147.28262L219.27206 147.57495L219.97451 147.58313L240.06613 145.34564L240.76857 145.181L241.51469 144.72249L242.10112 144.04919L242.46323 143.23533L242.54658 142.49779V116.16842L242.88903 116.41438L244.03807 116.98358L245.30586 117.38833L246.72643 117.64431L248.36724 117.76142L250.34725 117.73753L252.87887 117.55127L254.08066 117.42587L257.51921 116.96198L260.26782 116.43449L262.57062 115.83339L264.55695 115.15106L266.30477 114.38012L267.86344 113.51327L269.26435 112.54382L270.52725 111.46608L271.66497 110.27502L272.68697 108.96477L273.60165 107.52635L274.41717 105.94517L275.14134 104.19876L275.78093 102.25493L276.34096 100.06984L276.82432 97.585279L277.23146 94.724009L277.56044 91.381613L277.80671 87.411406L277.96276 82.594758L278.01697 76.700324L277.9402 69.84399L277.73742 64.713494L277.4316 60.646977L277.03473 57.319974L276.55339 54.53987L275.99051 52.180135L275.34614 50.152866L274.61798 48.395485L273.8021 46.863529L272.89379 45.526129L271.88829 44.362538L270.78115 43.358985L269.56755 42.505863L268.2407 41.79567L266.78941 41.222056L265.19555 40.779992L263.43126 40.466675L261.45578 40.282741L259.2105 40.233635L256.60992 40.331389L253.52261 40.597793L253.08848 40.645109L249.38516 41.146961L247.05071 41.627944L245.27839 42.163423L243.82122 42.788267L242.57233 43.527796L241.51938 44.3711L241.48101 44.293394L240.89458 43.750715L240.14846 43.45839L239.44602 43.450205L219.97451 45.618644L219.27206 45.783284L218.52595 46.241791L217.93952 46.915086L217.57741 47.728948L217.49406 48.466492zM241.43038 80.389038L241.50879 75.079207L241.69349 71.850347L241.94649 69.654018L242.24129 68.119142L242.55298 67.052052L242.85889 66.326095L243.14557 65.839822L243.42007 65.502054L243.7178 65.235702L244.09855 64.989864L244.6343 64.744929L245.40275 64.505083L246.49736 64.285356L247.38345 64.167812L249.00041 64.056409L250.03149 64.100633L250.71553 64.228253L251.18237 64.400793L251.5285 64.609994L251.82596 64.880679L252.11752 65.264193L252.41731 65.8255L252.71983 66.634863L253.01025 67.769549L253.27122 69.324544L253.48563 71.431964L253.6367 74.296404L253.70633 78.273549L253.70859 79.278839L253.63173 84.252464L253.44746 87.381665L253.19345 89.5394L252.89635 91.062L252.58077 92.130886L252.26864 92.867087L251.97259 93.368441L251.68542 93.722869L251.37309 94.004667L250.97831 94.263354L250.4318 94.518828L249.65859 94.768051L248.56961 94.996993L247.50747 95.141947L245.92025 95.25008L244.92671 95.203866L244.27773 95.077772L243.84023 94.910112L243.51582 94.706793L243.23251 94.439052L242.94966 94.051709L242.65599 93.477107L242.35931 92.642916L242.07581 91.469082L241.82352 89.855621L241.61998 87.661219L241.48254 84.663746L241.43039 80.469963zM281.98569 75.744026L282.06204 81.770621L282.26697 86.436256L282.57943 90.224386L282.98818 93.386536L283.48701 96.076577L284.07308 98.39736L284.74619 100.42111L285.50809 102.19965L286.36194 103.77024L287.31171 105.15925L288.36174 106.38515L289.51674 107.46087L290.78247 108.39591L292.1669 109.19772L293.68193 109.87236L295.3451 110.42447L297.18144 110.85677L299.22554 111.16933L301.52435 111.35884L304.14181 111.41766L307.16711 111.33261L310.7306 111.08252L313.85943 110.76862L318.57998 110.16172L322.09882 109.5555L324.91407 108.91613L327.25693 108.22655L329.25975 107.47438L331.00577 106.6487L332.54908 105.73935L333.92475 104.73728L335.15515 103.63488L336.25507 102.42547L337.23568 101.10146L338.10726 99.651338L338.88025 98.056211L339.56524 96.28623L340.17238 94.296706L340.71105 92.022537L341.19009 89.368115L341.61896 86.186406L341.87635 83.729445L341.8754 83.086296L341.6624 82.389014L341.25793 81.807341L340.69635 81.390678L340.02536 81.174414L339.40804 81.178626L321.67284 83.153701L321.05192 83.288245L320.37762 83.657689L319.81462 84.204808L319.4113 84.882586L319.23488 85.522899L318.9353 86.859452L318.72098 87.444937L318.58025 87.693886L318.47943 87.811396L318.32852 87.928246L318.00939 88.096576L317.40479 88.312095L316.3835 88.553019L314.73209 88.807473L313.98346 88.896094L311.51286 89.095138L309.99928 89.087843L308.99222 88.969234L308.30745 88.788524L307.82697 88.571465L307.45978 88.316289L307.13872 87.99085L306.82457 87.538965L306.50365 86.890667L306.17839 85.965775L305.8569 84.664768L305.66146 83.522417L339.90413 79.708991L340.59888 79.547319L341.33848 79.097586L341.92344 78.436526L342.29071 77.635407L342.38419 76.906295L342.43285 69.517504L342.32545 63.846997L342.09455 59.271757L341.75774 55.474413L341.32568 52.262629L340.8048 49.507985L340.19845 47.11956L339.5075 45.030789L338.73083 43.192249L337.86586 41.567342L336.90903 40.129368L335.85629 38.859195L334.70317 37.743205L333.44441 36.771471L332.07301 35.936365L330.57879 35.231772L328.94682 34.65295L327.15564 34.196875L325.17543 33.862872L322.96546 33.653352L320.47031 33.574666L317.61303 33.638279L314.28232 33.862824L311.50301 34.139791L307.17677 34.701712L303.7682 35.298212L300.94724 35.946529L298.5424 36.656593L296.44955 37.436275L294.60038 38.292962L292.94863 39.233882L291.46281 40.265921L290.12166 41.395403L288.91064 42.628261L287.81919 43.97091L286.83868 45.43179L285.96131 47.023279L285.1799 48.763604L284.48809 50.678586L283.88089 52.803361L283.3551 55.184552L282.90958 57.883612L282.54542 60.982495L282.2661 64.593749L282.07778 68.879553L281.99023 74.091105zM305.61766 64.497351L305.70196 63.318414L306.00707 60.900385L306.33442 59.265223L306.66909 58.140796L306.99451 57.373523L307.30161 56.851557L307.60033 56.48035L307.92694 56.182421L308.34052 55.906619L308.9121 55.631669L309.71921 55.358714L310.85549 55.099018L312.46358 54.863237L312.61921 54.845558L314.57246 54.700637L315.763 54.733272L316.53356 54.85726L317.04189 55.026852L317.39848 55.22575L317.68769 55.472336L317.96367 55.81635L318.24865 56.325897L318.54138 57.077046L318.82928 58.155262L319.09745 59.670043L319.33329 61.786002L319.40983 62.961391z" fill="#fff"/><defs><linearGradient id="d0" gradientUnits="userSpaceOnUse" x1="211.66667" y1="28.403021" x2="211.66667" y2="183.26365"><stop offset="0" stop-color="#fcd34d"/><stop offset=".5" stop-color="#f59e0b"/><stop offset="1" stop-color="#d97706"/></linearGradient></defs></svg>